<?xml version="1.0" standalone="no"?>
<!DOCTYPE svg PUBLIC "-//W3C//DTD SVG 20010904//EN"
 "http://www.w3.org/TR/2001/REC-SVG-20010904/DTD/svg10.dtd">
<svg version="1.0" xmlns="http://www.w3.org/2000/svg"
 width="770.000000pt" height="1057.000000pt" viewBox="0 0 770.000000 1057.000000"
 preserveAspectRatio="xMidYMid meet">

<g transform="translate(0.000000,1057.000000) scale(0.100000,-0.100000)"
fill="#000000" stroke="none">
<path d="M1525 10540 c-283 -35 -476 -162 -588 -386 -76 -151 -79 -174 -88
-694 -4 -256 -10 -488 -13 -516 -2 -29 0 -56 6 -62 5 -5 8 -75 6 -176 -2 -91
0 -166 5 -166 4 0 8 -21 9 -47 2 -27 5 204 8 512 4 500 7 560 21 563 14 3 16
-68 22 -725 10 -1081 8 -3045 -3 -3063 -25 -41 -30 55 -30 641 0 329 -3 599
-7 599 -24 -1 -35 -18 -24 -38 17 -32 15 -1184 -1 -1201 -8 -7 -13 -38 -13
-77 0 -47 -4 -67 -15 -74 -20 -13 -33 -13 -25 0 13 22 -14 9 -32 -15 -11 -16
-30 -26 -51 -28 -39 -4 -60 -23 -67 -58 -3 -13 -9 -25 -15 -27 -6 -2 -8 -7 -6
-11 3 -3 -4 -18 -15 -31 -15 -20 -19 -22 -19 -7 0 9 -4 17 -10 17 -5 0 -10 -4
-10 -10 0 -5 -10 -10 -22 -11 -13 0 -18 -3 -11 -5 12 -5 10 -18 -7 -59 -5 -11
-11 -27 -14 -35 -3 -8 -5 2 -3 22 2 21 0 35 -4 30 -12 -12 -75 -206 -75 -227
1 -26 -16 -47 -26 -32 -3 6 -10 -7 -14 -29 -3 -21 -8 -47 -10 -58 -2 -10 -8
-24 -14 -30 -5 -7 -6 -17 -2 -21 4 -5 1 -5 -6 -1 -10 6 -10 13 4 34 13 21 14
24 2 15 -8 -7 -18 -10 -22 -6 -4 4 -4 -1 0 -11 5 -12 4 -17 -3 -13 -5 3 -10 0
-10 -8 0 -8 5 -15 11 -15 7 0 7 -3 1 -8 -14 -10 -17 -32 -5 -32 5 0 9 -3 9 -7
-1 -5 0 -11 1 -15 1 -5 3 -12 4 -17 2 -18 172 -166 190 -166 7 0 27 -17 45
-37 31 -36 32 -39 21 -75 -7 -21 -17 -43 -21 -49 -5 -6 -10 -23 -11 -37 -1
-14 -5 -25 -8 -24 -3 0 -26 -19 -51 -43 -26 -25 -75 -69 -108 -99 -72 -63
-106 -110 -50 -69 54 40 117 68 152 68 51 0 105 19 121 42 8 12 13 24 11 28
-3 4 4 15 15 25 23 20 82 16 109 -10 49 -43 106 -196 117 -310 16 -171 12
-212 -18 -188 -7 6 -21 9 -30 8 -9 -2 -19 4 -22 12 -4 8 -13 13 -20 10 -8 -3
-17 1 -21 10 -4 13 -8 14 -17 5 -7 -7 -20 -12 -30 -12 -10 0 -18 -4 -18 -9 0
-4 -10 -7 -22 -7 -13 1 -29 -3 -37 -8 -12 -9 -13 -8 -6 4 7 12 4 12 -15 -2
-14 -9 -24 -21 -22 -27 1 -6 -4 -10 -10 -9 -7 2 -12 -3 -10 -9 1 -7 -3 -13 -9
-13 -5 0 -8 -4 -5 -8 3 -5 -10 -21 -29 -36 -18 -15 -37 -40 -40 -57 -4 -16
-13 -33 -22 -37 -8 -5 -14 -11 -12 -13 5 -9 -13 -49 -22 -49 -5 0 -8 -3 -7 -7
3 -15 -25 -63 -37 -63 -7 0 -11 -12 -10 -27 2 -39 -4 -53 -22 -46 -11 4 -14 2
-9 -5 4 -8 0 -12 -11 -12 -14 0 -15 -2 -4 -9 11 -7 11 -9 0 -13 -11 -4 -9 -11
8 -30 13 -13 23 -29 23 -35 0 -6 7 -14 16 -17 8 -3 12 -10 9 -16 -3 -5 1 -10
9 -10 8 0 19 -7 24 -16 5 -9 31 -28 58 -43 55 -29 59 -43 14 -52 -16 -4 -49
-19 -71 -35 -22 -16 -60 -43 -85 -60 -56 -39 -65 -48 -37 -40 12 4 30 9 40 11
10 2 29 7 43 12 37 14 86 11 82 -5 -1 -8 1 -11 6 -8 16 10 67 18 141 23 69 5
74 4 69 -14 -3 -10 1 -24 9 -31 7 -8 13 -8 13 -2 0 5 5 10 11 10 5 0 8 -4 5
-9 -4 -5 3 -7 13 -4 16 4 19 1 14 -16 -3 -11 -9 -19 -13 -16 -4 2 -16 -5 -26
-17 -11 -12 -14 -18 -7 -15 6 4 15 2 19 -4 4 -7 3 -9 -4 -5 -6 3 -13 2 -17 -4
-4 -6 -11 -8 -16 -5 -5 4 -9 2 -9 -4 0 -6 -6 -8 -13 -6 -12 5 -53 -52 -49 -68
2 -5 -2 -6 -8 -2 -5 3 -10 -1 -10 -9 0 -9 -3 -15 -8 -15 -17 3 -35 -1 -29 -7
3 -3 -3 -14 -13 -24 -12 -12 -16 -26 -13 -40 4 -14 -4 -35 -24 -63 -22 -31
-29 -51 -26 -77 2 -25 0 -31 -7 -20 -7 12 -10 11 -16 -5 -4 -11 -12 -23 -18
-27 -8 -5 -7 -8 1 -8 6 0 11 -9 10 -19 0 -11 -5 -17 -9 -15 -5 3 -5 10 -2 16
4 7 2 8 -5 4 -6 -4 -9 -19 -6 -33 2 -15 -4 -45 -14 -67 -10 -23 -18 -56 -19
-75 0 -18 -3 -35 -6 -38 -2 -3 0 -17 5 -33 8 -22 6 -34 -10 -61 -12 -19 -23
-32 -26 -31 -9 6 -90 -10 -102 -20 -10 -8 -9 -13 2 -25 8 -8 15 -24 15 -36 0
-18 7 -13 45 28 39 42 47 47 58 34 6 -9 32 -22 57 -29 60 -18 82 -33 103 -69
10 -17 19 -32 20 -33 1 -2 -8 -16 -21 -32 -15 -20 -19 -32 -12 -41 5 -6 7 -15
3 -18 -3 -4 0 -7 8 -7 11 0 11 -2 -1 -10 -13 -8 -13 -10 -1 -10 11 0 9 -4 -5
-14 -14 -11 -16 -17 -7 -26 9 -9 4 -24 -21 -64 -18 -28 -36 -63 -40 -78 -3
-16 -11 -28 -17 -28 -6 0 -7 -4 -4 -10 3 -5 -5 -20 -18 -32 -32 -32 -67 -91
-67 -116 0 -12 -11 -29 -25 -38 -14 -9 -23 -19 -22 -23 2 -3 -4 -14 -15 -24
-10 -9 -18 -13 -18 -7 0 5 -5 10 -12 10 -7 0 -6 -6 4 -17 18 -23 16 -47 -10
-103 -11 -24 -18 -48 -16 -52 3 -4 1 -8 -4 -8 -5 0 -10 -29 -10 -65 -1 -36 -4
-69 -6 -74 -10 -16 43 -108 78 -135 20 -15 34 -32 31 -37 -4 -5 5 -13 19 -19
29 -11 32 -20 14 -38 -9 -9 -8 -15 8 -27 10 -8 25 -15 32 -15 6 0 12 -8 12
-17 0 -27 62 -146 93 -181 10 -10 17 -29 17 -41 0 -12 12 -33 26 -46 16 -15
24 -31 20 -40 -4 -11 11 -34 41 -67 47 -49 48 -50 94 -44 36 5 51 3 63 -9 9
-9 16 -12 16 -6 0 15 102 9 119 -7 8 -8 15 -24 16 -37 5 -41 16 -65 30 -65 8
0 17 -9 20 -20 3 -11 11 -20 16 -20 6 0 7 -5 4 -10 -4 -6 -3 -10 2 -9 23 4 33
-3 33 -23 0 -13 11 -36 23 -52 23 -29 24 -29 55 -13 36 18 38 16 16 -18 -11
-18 -13 -29 -5 -43 6 -11 7 -22 4 -26 -3 -3 7 -6 23 -6 55 0 74 -10 74 -39 0
-15 11 -42 24 -60 l25 -33 48 46 c37 35 45 48 34 55 -9 6 -10 11 -2 15 12 8
-6 56 -21 56 -37 0 60 114 108 126 19 5 22 1 26 -33 5 -38 -13 -96 -32 -108
-19 -12 -11 -26 9 -15 25 13 34 -2 16 -26 -8 -10 -15 -29 -15 -42 0 -19 -5
-22 -27 -20 -24 3 -28 0 -25 -21 3 -31 -16 -101 -28 -101 -6 0 -10 -14 -10
-31 0 -29 2 -30 38 -28 23 2 43 10 54 23 9 11 20 18 24 14 4 -4 1 -14 -6 -23
-11 -13 -3 -15 64 -15 l76 0 -6 55 c-7 55 -6 56 35 97 40 41 56 42 26 2 -19
-25 -19 -44 0 -44 19 0 55 57 55 87 0 36 60 197 80 213 50 41 99 113 115 167
9 32 23 73 31 91 8 18 14 43 14 55 0 24 51 63 64 49 4 -4 6 -1 4 7 -2 9 6 15
22 17 14 1 35 6 47 9 16 5 23 2 28 -15 5 -17 9 -19 15 -9 12 19 60 -8 60 -34
0 -11 3 -17 6 -14 15 14 47 -69 47 -120 0 -29 3 -53 6 -53 3 0 12 -9 19 -20 8
-14 9 -19 1 -18 -6 2 -14 -3 -17 -11 -3 -8 0 -11 7 -7 7 5 11 -3 11 -23 0 -16
-4 -32 -10 -36 -6 -3 -6 -15 0 -29 5 -13 6 -27 3 -30 -4 -3 0 -6 8 -6 11 0 11
-2 -1 -10 -8 -5 -10 -10 -5 -10 6 0 9 -19 7 -44 -3 -32 -9 -45 -21 -49 -15 -4
-17 -14 -15 -66 2 -35 8 -69 14 -76 7 -8 9 -23 5 -35 -4 -12 -1 -27 5 -35 13
-15 44 -9 34 7 -4 6 -9 6 -14 -2 -5 -8 -10 -8 -14 -2 -10 16 21 22 35 6 9 -11
8 -18 -6 -34 -10 -11 -16 -23 -12 -26 11 -11 67 8 81 28 8 11 20 18 27 16 8
-3 7 -9 -5 -20 -9 -9 -16 -19 -16 -22 0 -3 398 -6 885 -6 l885 0 -12 21 c-11
18 -10 23 10 36 21 15 21 17 6 34 -18 20 -10 41 25 73 25 22 31 19 35 -20 2
-15 8 -30 15 -32 6 -2 11 -11 11 -21 0 -24 48 -91 66 -91 10 0 14 6 11 14 -3
8 -11 34 -17 57 -7 24 -18 55 -25 69 -7 14 -16 39 -19 56 -4 16 -18 52 -31 79
-27 52 -31 80 -15 90 6 4 18 1 27 -7 14 -11 16 -11 8 2 -7 12 -6 13 6 3 8 -6
19 -13 24 -15 6 -1 10 -13 9 -25 -1 -12 3 -20 8 -17 4 3 6 10 3 15 -4 5 -2 9
3 9 5 0 12 -9 15 -20 3 -11 2 -20 -2 -20 -4 0 -13 -11 -19 -25 -11 -23 -10
-25 12 -25 31 0 41 -13 66 -90 12 -36 28 -74 36 -84 26 -36 28 -6 4 61 -29 83
-37 163 -15 163 8 0 15 3 15 8 0 4 23 32 50 62 47 51 51 54 64 37 9 -12 16
-14 21 -7 3 5 11 8 16 5 5 -4 9 0 9 7 0 20 46 38 61 24 11 -9 11 -8 1 5 -25
34 40 67 67 35 9 -11 9 -15 -1 -19 -7 -3 12 -5 44 -4 36 1 53 6 48 12 -8 11
-5 189 5 204 3 6 12 8 20 4 9 -3 15 1 15 9 0 10 9 13 30 10 16 -2 28 -8 25
-12 -3 -5 -1 -12 5 -15 6 -4 10 -3 9 2 -4 17 13 62 26 67 7 2 16 18 20 34 3
17 13 33 21 36 8 3 14 12 14 19 0 8 14 20 32 28 17 7 55 34 85 60 30 26 96 77
148 114 124 88 182 147 195 199 22 87 103 315 139 391 21 44 59 111 84 148 26
38 47 78 47 90 0 58 69 188 134 253 33 33 66 50 66 33 0 -5 11 -7 24 -3 22 5
26 2 32 -33 5 -21 7 -42 6 -46 -1 -5 4 -7 12 -5 24 5 84 90 126 178 49 102 84
142 116 134 39 -10 37 15 -6 64 -75 84 -111 161 -184 392 -20 63 -41 129 -47
145 -6 17 -19 58 -30 93 -14 45 -26 65 -42 71 -12 5 -54 35 -92 67 -39 33
-103 85 -143 118 l-72 58 0 222 c0 123 3 226 7 229 4 4 18 -12 32 -36 41 -68
146 -210 175 -234 21 -18 26 -32 26 -66 0 -44 35 -164 52 -182 7 -7 8 13 3 57
-5 50 -2 82 11 129 17 60 17 62 -2 75 -66 45 -102 77 -99 87 16 53 14 64 -11
75 -14 7 -36 12 -49 12 -28 0 -81 66 -96 122 -5 21 -18 53 -28 71 -11 17 -22
43 -26 57 -4 14 -18 53 -32 88 -72 185 -80 448 -28 932 8 74 19 185 25 245 23
234 62 339 162 436 47 46 161 82 172 54 3 -9 13 -11 28 -7 21 5 22 4 8 -14
-14 -18 -14 -18 6 -1 24 20 41 23 25 4 -8 -10 -7 -14 4 -14 7 0 14 3 13 6 0 3
0 12 1 20 2 22 15 3 16 -22 0 -12 5 -22 12 -22 6 0 14 -3 18 -7 10 -9 -32
-135 -56 -170 -20 -27 -21 -37 -14 -126 3 -53 11 -116 17 -140 12 -48 8 -59
-19 -43 -10 6 -12 11 -5 11 15 0 16 30 1 30 -5 0 -7 5 -4 10 3 6 2 10 -3 10
-6 0 -9 23 -8 50 1 28 -2 50 -6 50 -5 0 -8 -6 -8 -12 0 -9 -4 -8 -10 2 -8 12
-10 12 -10 -5 0 -17 -2 -17 -10 -5 -7 11 -9 3 -6 -27 2 -26 0 -43 -7 -43 -6 0
-8 -3 -4 -6 3 -4 -3 -14 -15 -23 -22 -18 -33 -67 -17 -77 5 -3 9 -2 8 3 -1 4
0 19 1 33 2 21 3 22 7 5 3 -11 10 -26 16 -33 8 -10 7 -12 -4 -10 -9 2 -14 -5
-13 -18 0 -13 -5 -20 -11 -18 -6 3 -12 -2 -12 -10 0 -8 4 -13 9 -10 5 4 4 -3
-4 -15 -10 -16 -10 -23 0 -33 10 -10 15 -10 22 2 9 13 10 13 11 0 1 -8 1 -25
1 -38 -1 -15 3 -20 11 -17 7 4 4 0 -7 -9 -15 -12 -17 -20 -8 -44 7 -22 7 -29
-3 -29 -7 0 -11 6 -8 14 3 7 0 13 -7 13 -6 0 -9 -4 -5 -9 3 -5 1 -13 -5 -16
-8 -5 -7 -11 1 -21 6 -8 8 -14 4 -14 -4 0 -2 -7 5 -15 7 -9 10 -18 7 -22 -4
-3 -1 -13 6 -21 9 -13 9 -14 0 -8 -9 5 -13 1 -13 -13 0 -11 5 -23 10 -26 8 -5
8 -11 1 -19 -7 -9 -4 -17 10 -30 13 -10 19 -25 16 -36 -3 -11 0 -21 7 -24 7
-3 6 -5 -2 -5 -10 -1 -9 -5 3 -17 11 -12 15 -29 12 -60 -2 -24 0 -49 5 -56 6
-10 8 -10 8 1 0 8 9 2 21 -13 11 -14 18 -30 15 -35 -3 -5 1 -14 9 -21 8 -7 20
-31 27 -54 6 -22 16 -47 22 -55 8 -11 8 -13 -1 -7 -16 9 -16 8 3 -45 13 -38
20 -88 23 -177 1 -16 5 -21 14 -16 8 5 8 2 -2 -9 -7 -9 -9 -17 -3 -17 5 0 10
-23 10 -51 1 -28 6 -57 13 -65 10 -12 6 -18 -12 -16 -3 1 -6 -6 -6 -13 0 -11
4 -12 14 -4 14 13 16 7 13 -47 0 -17 5 -36 14 -43 8 -7 13 -23 11 -39 -2 -15
-2 -21 1 -14 3 6 10 12 15 12 6 0 6 -8 -1 -19 -14 -27 -13 -38 3 -17 12 16 13
16 13 -3 0 -19 -7 -25 -22 -18 -3 1 -12 -10 -20 -26 -14 -25 -9 -55 9 -56 4
-1 9 -2 12 -2 3 -1 15 -2 27 -3 15 -1 28 -12 37 -31 8 -16 18 -32 23 -33 4 -2
5 -9 1 -15 -4 -7 -1 -7 9 1 23 18 33 0 35 -63 1 -27 2 -56 2 -62 1 -7 8 -13
16 -13 8 0 15 -8 15 -17 1 -10 9 -28 20 -41 14 -17 25 -21 44 -16 20 5 25 13
28 42 2 29 7 37 23 37 11 0 22 2 25 5 3 3 15 10 26 17 23 12 34 8 34 -13 0 -7
23 -36 51 -64 27 -27 48 -54 45 -59 -4 -5 3 -7 13 -4 13 3 23 -2 31 -17 6 -12
9 -24 6 -27 -3 -3 4 -14 16 -24 11 -11 18 -19 14 -19 -3 0 0 -13 8 -29 9 -16
12 -32 8 -36 -4 -5 -2 -5 5 -1 8 4 23 -16 43 -58 17 -37 39 -67 50 -71 11 -4
17 -12 13 -20 -6 -17 35 -107 46 -100 9 5 27 -29 36 -68 4 -20 10 -27 20 -23
8 3 14 2 13 -2 -5 -18 45 -86 55 -75 4 3 14 -11 23 -31 10 -20 22 -36 26 -36
5 0 7 -4 4 -8 -2 -4 7 -30 20 -56 17 -34 23 -58 19 -77 -8 -34 2 -70 17 -66
12 2 46 -51 47 -75 1 -9 9 -24 19 -34 17 -17 26 -54 12 -54 -14 0 -20 14 -10
25 7 8 5 12 -5 12 -8 0 -15 -3 -15 -6 1 -18 47 -131 52 -126 3 4 5 -12 5 -34
-1 -23 1 -41 6 -41 4 0 7 -7 7 -15 0 -8 -6 -15 -12 -15 -10 0 -9 -3 1 -9 7 -5
10 -14 6 -20 -5 -9 -11 -9 -23 1 -12 10 -14 10 -8 1 5 -9 1 -13 -11 -13 -15 0
-16 -2 -3 -10 13 -8 12 -10 -4 -10 -11 0 -16 -3 -13 -7 4 -3 -1 -15 -10 -26
-10 -11 -18 -29 -18 -41 0 -14 -5 -20 -17 -18 -13 2 -15 -4 -11 -40 l5 -43
-20 24 c-23 28 -30 20 -36 -44 -6 -55 -22 -72 -49 -47 -28 25 -50 4 -63 -64
-7 -32 -11 -61 -9 -63 2 -2 -6 -12 -18 -21 -18 -15 -22 -29 -23 -77 -1 -32 -2
-63 -3 -70 0 -7 -19 -17 -41 -23 -22 -6 -40 -15 -40 -20 0 -6 -7 -10 -15 -10
-8 0 -15 3 -15 8 0 4 -19 13 -41 20 -36 11 -44 11 -59 -3 -9 -8 -25 -13 -34
-9 -9 3 -16 2 -16 -4 0 -13 22 -28 40 -27 31 1 80 -75 105 -163 4 -13 9 -21
12 -18 3 3 12 -1 19 -9 16 -16 19 -59 4 -50 -6 3 -13 -2 -16 -12 -3 -10 -12
-30 -20 -45 -8 -14 -14 -37 -14 -51 0 -14 -6 -27 -13 -30 -8 -3 -26 -30 -41
-61 -15 -31 -31 -56 -35 -56 -17 0 -10 61 9 80 20 20 28 70 12 70 -5 0 -15
-18 -22 -40 -7 -22 -19 -40 -25 -40 -18 0 -24 -44 -8 -66 16 -22 17 -34 2 -34
-5 0 -7 5 -3 12 5 7 3 8 -5 4 -9 -6 -9 -12 3 -25 9 -10 16 -23 16 -30 0 -15
41 5 53 26 5 7 13 11 18 7 5 -3 -1 -14 -13 -24 -21 -16 -35 -86 -15 -73 4 2
14 0 21 -6 11 -9 15 -6 20 11 5 15 9 18 13 10 3 -7 -2 -21 -11 -31 -9 -10 -14
-20 -11 -22 2 -3 1 -19 -4 -36 -12 -41 -1 -57 26 -38 15 10 19 22 16 36 -5 20
-4 20 17 9 20 -11 21 -14 9 -24 -15 -12 -14 -56 2 -56 5 0 9 -5 9 -12 0 -6 -3
-8 -7 -5 -3 4 -12 2 -18 -3 -9 -8 -21 -2 -43 19 -36 36 -112 55 -112 28 0 -9
9 -21 21 -27 34 -19 40 -51 13 -73 -31 -24 -30 -30 8 -45 38 -14 58 -2 38 23
-14 17 -10 28 5 17 28 -20 48 -90 23 -77 -7 4 -5 0 4 -7 15 -13 15 -15 0 -24
-13 -9 -15 -17 -7 -48 6 -21 15 -38 20 -39 6 0 19 -9 29 -19 15 -14 23 -15 33
-6 12 10 12 7 2 -18 -20 -46 -26 -51 -65 -48 -30 3 -34 1 -24 -11 6 -7 13 -36
15 -63 3 -46 1 -51 -20 -56 -15 -4 -27 -18 -35 -41 -6 -19 -16 -38 -22 -41
-11 -7 -44 35 -40 51 1 6 -7 -1 -18 -15 -13 -16 -20 -40 -20 -70 0 -49 -7 -64
-30 -73 -8 -3 256 -6 588 -6 l602 0 -2 1292 -3 1293 -31 39 c-44 57 -68 101
-225 412 -77 153 -150 295 -162 315 -12 20 -40 68 -61 105 -22 37 -42 70 -45
73 -25 21 -171 332 -171 364 0 25 -40 104 -55 110 -7 2 -23 26 -35 53 -11 26
-30 58 -42 70 -11 12 -26 31 -32 42 -33 58 -113 157 -207 255 -103 108 -165
192 -223 306 -16 30 -42 75 -59 100 -26 38 -31 55 -34 120 -3 63 -27 220 -48
320 -17 78 -65 345 -65 360 0 11 -5 31 -12 45 l-11 26 -22 -45 c-12 -25 -28
-52 -35 -61 -7 -8 -10 -18 -7 -22 4 -3 2 -15 -4 -26 -6 -10 -7 -17 -1 -14 5 4
8 -9 7 -31 -4 -60 -4 -64 -17 -56 -7 4 -8 3 -4 -5 4 -6 10 -10 14 -7 4 2 16
-5 27 -16 13 -13 15 -17 5 -13 -11 4 -16 -1 -17 -15 -1 -13 2 -18 10 -13 7 4
5 -2 -3 -13 -22 -29 -24 -30 -18 -13 4 9 1 16 -7 16 -7 0 -11 -7 -8 -16 3 -12
2 -11 -7 2 -6 9 -13 27 -15 39 -3 12 -9 26 -14 31 -5 5 -7 15 -4 22 3 9 -3 13
-20 11 l-24 -3 14 49 c8 26 33 81 55 120 69 124 54 167 -67 189 -147 27 -291
-21 -373 -126 -12 -15 -25 -25 -29 -22 -3 4 -8 354 -10 777 -4 604 -2 774 8
786 9 11 9 18 1 26 -18 18 -17 1035 1 1041 9 3 9 9 -1 26 -10 17 -12 189 -12
794 l1 772 -25 104 c-68 279 -236 452 -514 529 l-97 26 -1690 2 c-929 1 -1717
-2 -1750 -6z m3380 -26 c76 -6 165 -26 227 -51 53 -21 43 -26 -18 -9 -27 8
-85 19 -129 25 -50 6 -721 11 -1790 13 l-1710 3 -80 -22 c-137 -36 -133 -36
-95 -14 51 28 151 52 250 61 94 9 3234 3 3345 -6z m483 -211 c128 -127 180
-269 189 -515 5 -127 4 -148 -9 -148 -12 0 -16 23 -21 123 -4 68 -14 154 -23
193 -9 38 -18 83 -21 99 -14 85 -71 184 -155 268 -26 26 -43 47 -37 47 5 0 40
-30 77 -67z m-4298 8 c0 -5 -15 -28 -34 -50 -85 -101 -122 -226 -138 -453 -9
-128 -15 -168 -25 -168 -16 0 -15 -4 -13 135 3 215 59 382 174 512 30 35 36
39 36 24z m903 -58 c35 -18 63 -62 71 -115 13 -83 67 -145 155 -180 l56 -23
965 0 965 0 47 24 c27 13 45 27 42 32 -3 5 1 9 9 9 34 0 96 107 97 165 0 37
22 70 59 89 44 23 428 24 501 1 169 -53 297 -178 352 -344 l22 -66 2 -2620 c1
-1441 3 -3306 5 -4145 l4 -1525 -24 -67 c-13 -38 -28 -68 -32 -68 -5 0 -9 -7
-9 -16 0 -26 -130 -147 -196 -182 -125 -65 -19 -62 -1862 -62 -1857 0 -1752
-4 -1869 66 -120 72 -203 182 -238 314 -13 48 -15 593 -15 4172 0 3024 3 4131
11 4170 16 73 45 137 75 165 14 13 22 28 18 35 -4 6 -3 8 3 5 5 -3 30 14 54
39 55 57 114 92 209 125 73 25 79 25 285 21 154 -3 217 -8 238 -19z m-997
-400 c-3 -76 -7 -1166 -8 -2423 -2 -1667 -6 -2217 -13 -2035 -5 138 -9 1201
-10 2365 0 1718 2 2126 13 2173 7 31 16 57 18 57 3 0 3 -62 0 -137z m4484 1
c11 -100 12 -5726 1 -6324 l-7 -355 -3 360 c-1 198 -4 1701 -6 3340 -3 1639
-7 3007 -10 3040 -8 95 13 43 25 -61z m102 -2189 c3 -1749 -2 -2180 -23 -2115
-4 14 -12 102 -17 195 -18 315 -7 3773 12 3803 5 8 12 10 17 5 4 -4 10 -854
11 -1888z m313 -2445 c-3 -5 -1 -19 5 -30 6 -11 8 -20 6 -20 -10 0 -27 41 -21
50 3 6 8 10 11 10 3 0 2 -4 -1 -10z m321 -224 c7 -11 15 -38 18 -58 7 -46 -11
-51 -36 -10 -10 15 -31 45 -47 67 -22 30 -27 44 -20 58 9 17 12 16 42 -9 18
-14 37 -36 43 -48z m-338 -103 c-2 -11 2 -17 10 -15 8 1 11 -2 7 -8 -10 -16
-35 8 -28 26 7 20 14 18 11 -3z m227 -794 c-4 -5 -12 -9 -18 -8 -9 0 -8 2 1 6
6 2 9 10 6 15 -4 7 -2 8 5 4 6 -4 9 -12 6 -17z m-538 -386 c-3 -10 -5 -4 -5
12 0 17 2 24 5 18 2 -7 2 -21 0 -30z m743 -18 c17 3 25 -31 10 -40 -5 -3 -6
-13 -3 -22 5 -12 3 -14 -7 -8 -10 6 -12 4 -7 -9 4 -10 3 -15 -3 -11 -16 10
-12 -7 8 -29 l17 -21 -24 20 c-19 15 -23 16 -19 4 4 -9 1 -16 -7 -16 -7 0 -11
6 -8 14 3 7 1 13 -4 13 -5 0 -10 7 -10 15 0 8 4 12 9 9 4 -3 8 1 8 8 0 11 2
10 9 0 7 -11 10 -10 15 3 3 9 6 26 6 36 0 13 4 18 12 13 7 -4 8 -3 4 5 -6 9
-11 9 -22 0 -11 -9 -14 -7 -14 12 0 14 3 19 8 13 4 -6 14 -10 22 -9z m37 -42
c-5 -26 -4 -26 9 -8 10 13 14 15 14 4 0 -12 2 -12 11 1 9 13 10 13 6 0 -2 -8
-9 -15 -14 -15 -6 0 -15 -3 -19 -7 -4 -4 -13 -3 -20 3 -10 8 -11 15 -1 30 16
26 20 24 14 -8z m-780 -180 c-2 -16 -4 -3 -4 27 0 30 2 43 4 28 2 -16 2 -40 0
-55z m-4702 -161 c-1 -28 -3 -53 -6 -56 -6 -6 -123 52 -127 63 -1 4 20 13 48
20 27 7 53 17 56 22 14 24 29 -1 29 -49z m132 -914 c-2 -13 -4 -3 -4 22 0 25
2 35 4 23 2 -13 2 -33 0 -45z m6053 -572 c0 -3 -4 -8 -10 -11 -5 -3 -10 -1
-10 4 0 6 5 11 10 11 6 0 10 -2 10 -4z m0 -36 c0 -5 -2 -10 -4 -10 -3 0 -8 5
-11 10 -3 6 -1 10 4 10 6 0 11 -4 11 -10z m30 -25 c0 -8 -2 -15 -4 -15 -2 0
-6 7 -10 15 -3 8 -1 15 4 15 6 0 10 -7 10 -15z m-6063 -187 c-3 -8 -6 -5 -6 6
-1 11 2 17 5 13 3 -3 4 -12 1 -19z m5783 -410 c0 -26 -16 -55 -25 -47 -8 8 6
69 16 69 5 0 9 -10 9 -22z m-5522 -83 c151 -70 206 -76 897 -91 176 -3 322 -9
325 -12 9 -9 -912 8 -997 19 -120 14 -278 67 -298 99 -10 17 17 11 73 -15z
m3987 5 c3 -5 -19 -21 -50 -36 -62 -28 -87 -26 -33 2 18 10 42 24 53 30 11 7
21 12 22 13 1 1 5 -3 8 -9z m1565 -40 c0 -5 -5 -10 -11 -10 -5 0 -7 5 -4 10 3
6 8 10 11 10 2 0 4 -4 4 -10z m-1763 -46 c-3 -3 -12 -4 -19 -1 -8 3 -5 6 6 6
11 1 17 -2 13 -5z m2443 -94 c0 -5 -5 -10 -11 -10 -5 0 -7 5 -4 10 3 6 8 10
11 10 2 0 4 -4 4 -10z m155 -19 c3 -5 1 -12 -5 -16 -5 -3 -10 1 -10 9 0 18 6
21 15 7z m-6370 -152 c10 -30 0 -33 -13 -4 -6 14 -7 25 -2 25 5 0 12 -9 15
-21z m-39 -31 c-4 6 -5 12 -1 12 3 0 11 -12 17 -27 24 -60 2 -155 -26 -109 -6
11 -19 28 -28 38 -20 20 -24 44 -8 50 5 2 11 15 12 30 2 26 3 27 22 10 11 -9
16 -11 12 -4z m64 -112 c0 -3 -4 -8 -10 -11 -5 -3 -10 -1 -10 4 0 6 5 11 10
11 6 0 10 -2 10 -4z m-100 -65 c0 -20 -5 -29 -15 -27 -28 4 -37 22 -20 40 24
24 35 20 35 -13z m168 -28 c25 -72 25 -81 3 -92 -18 -10 -20 -9 -14 5 4 12 3
15 -6 10 -17 -11 -51 22 -51 50 0 13 -4 26 -10 29 -19 12 -10 24 23 28 17 2
34 5 37 5 3 1 11 -15 18 -35z m6222 -24 c0 -5 -4 -9 -10 -9 -5 0 -10 7 -10 16
0 8 5 12 10 9 6 -3 10 -10 10 -16z m-6347 -9 c3 -11 1 -18 -4 -14 -5 3 -9 12
-9 20 0 20 7 17 13 -6z m3291 -24 c-6 -16 -24 -23 -24 -8 0 10 22 33 27 28 2
-2 1 -11 -3 -20z m-200 -23 c4 -16 9 -36 12 -45 3 -10 1 -18 -5 -18 -12 0 -41
52 -41 75 0 26 27 16 34 -12z m61 7 c-3 -5 -11 -10 -16 -10 -6 0 -7 5 -4 10 3
6 11 10 16 10 6 0 7 -4 4 -10z m-3081 -24 c-3 -9 -10 -16 -15 -16 -14 0 -11
28 4 33 16 6 19 3 11 -17z m5490 -22 c5 -14 4 -15 -9 -4 -17 14 -19 20 -6 20
5 0 12 -7 15 -16z m-2444 -52 c0 -13 -12 -22 -22 -16 -10 6 -1 24 13 24 5 0 9
-4 9 -8z m-205 -119 c-25 -38 -42 -15 -20 28 15 28 19 30 27 15 7 -12 5 -24
-7 -43z m3495 -84 c0 -5 -4 -9 -10 -9 -5 0 -10 7 -10 16 0 8 5 12 10 9 6 -3
10 -10 10 -16z m-5325 -39 c-3 -5 -12 -10 -18 -10 -7 0 -6 4 3 10 19 12 23 12
15 0z"/>
<path d="M857 7909 c-16 -18 -17 -25 -7 -49 12 -30 10 -163 -4 -191 -5 -11 -2
-19 10 -23 9 -4 19 -5 21 -3 2 2 2 68 1 146 -3 139 -3 141 -21 120z"/>
<path d="M5975 5658 c-4 -18 -8 -35 -9 -38 -1 -3 -5 -10 -9 -17 -5 -7 -1 -10
11 -6 23 6 45 40 32 48 -6 3 -10 12 -10 18 0 8 3 8 9 -1 6 -10 11 -9 22 4 8
10 9 15 2 11 -6 -4 -14 -3 -18 3 -11 18 -22 10 -30 -22z"/>
<path d="M6080 5408 c0 -4 7 -8 16 -8 9 0 12 -5 8 -12 -4 -7 -3 -8 4 -4 15 9
5 33 -13 33 -8 0 -15 -4 -15 -9z"/>
<path d="M5865 5040 c-4 -6 -11 -8 -16 -4 -6 3 -5 -3 2 -14 15 -24 18 -23 24
7 4 23 0 27 -10 11z"/>
<path d="M5874 4710 c0 -13 4 -16 10 -10 7 7 7 13 0 20 -6 6 -10 3 -10 -10z"/>
<path d="M6080 3840 c-12 -7 -10 -9 7 -7 12 0 19 5 17 9 -6 10 -6 10 -24 -2z"/>
<path d="M6262 3358 c-7 -7 -12 -21 -11 -32 0 -19 1 -20 8 -3 6 17 8 17 20 3
9 -10 9 -16 3 -16 -6 0 -1 -10 11 -23 12 -13 26 -21 30 -19 5 2 4 -5 -2 -17
-15 -28 3 -28 23 1 14 20 14 22 -7 32 -12 6 -29 26 -39 44 -21 43 -22 44 -36
30z"/>
<path d="M106 2868 c-12 -42 -19 -168 -9 -168 5 0 15 6 22 13 11 10 12 8 3 -9
-11 -20 -7 -34 8 -34 14 0 10 91 -4 96 -10 4 -13 22 -11 65 1 32 1 59 0 59 -2
0 -6 -10 -9 -22z"/>
<path d="M6077 2003 c-11 -10 -8 -36 7 -65 8 -15 17 -41 21 -58 10 -45 44 -83
61 -69 15 13 16 78 1 97 -8 10 -7 12 4 10 8 -2 17 -7 21 -13 4 -5 6 0 6 11 -3
29 -20 42 -43 33 -11 -4 -15 -8 -8 -8 7 -1 10 -8 6 -18 -6 -14 -8 -14 -23 5
-10 12 -21 18 -26 14 -5 -4 -2 1 5 11 14 18 27 24 17 8 -4 -5 4 -7 16 -3 21 5
21 5 -3 14 -13 5 -31 16 -40 24 -8 8 -19 11 -22 7z"/>
<path d="M6670 1312 c0 -5 7 -15 15 -22 8 -7 15 -8 15 -2 0 5 -7 15 -15 22 -8
7 -15 8 -15 2z"/>
<path d="M6426 824 c11 -17 20 -22 27 -15 12 12 -8 41 -29 41 -12 0 -11 -5 2
-26z"/>
<path d="M6616 822 c-3 -5 1 -9 9 -9 8 0 12 4 9 9 -3 4 -7 8 -9 8 -2 0 -6 -4
-9 -8z"/>
<path d="M6465 810 c-7 -12 12 -40 27 -40 13 0 6 43 -9 47 -6 2 -14 -1 -18 -7z"/>
<path d="M6716 713 c-6 -14 -5 -15 5 -6 7 7 10 15 7 18 -3 3 -9 -2 -12 -12z"/>
<path d="M4605 409 c-4 -6 -5 -12 -2 -15 2 -3 7 2 10 11 7 17 1 20 -8 4z"/>
<path d="M4786 403 c-4 -9 -3 -20 2 -25 4 -4 9 4 10 17 2 29 -3 32 -12 8z"/>
<path d="M4511 356 c-7 -9 -21 -16 -31 -16 -9 0 -22 -12 -28 -26 -7 -14 -16
-23 -21 -20 -5 3 -15 -2 -22 -12 -7 -9 -9 -14 -5 -10 5 4 15 3 22 -3 10 -8 24
0 60 33 26 25 45 50 43 57 -4 10 -8 9 -18 -3z"/>
<path d="M6716 359 c2 -4 -1 -9 -8 -11 -7 -3 -2 -7 10 -10 12 -4 25 -1 29 4 4
7 1 8 -7 3 -9 -6 -12 -4 -8 7 4 8 0 15 -8 15 -7 0 -11 -4 -8 -8z"/>
<path d="M6620 332 c0 -6 5 -14 10 -17 6 -4 8 -11 5 -16 -4 -5 -4 -9 -1 -9 3
0 11 10 17 23 6 12 8 19 4 15 -5 -4 -14 -3 -22 3 -9 8 -13 8 -13 1z"/>
<path d="M6632 258 c-15 -15 -16 -32 -1 -22 8 4 9 -1 4 -17 -4 -13 -4 -21 0
-17 7 6 16 68 10 68 0 0 -6 -5 -13 -12z"/>
<path d="M6606 217 c3 -10 9 -15 12 -12 3 3 0 11 -7 18 -10 9 -11 8 -5 -6z"/>
<path d="M4425 27 c-8 -19 -2 -31 13 -26 5 2 6 13 2 24 -7 19 -8 19 -15 2z"/>
</g>
</svg>
